<svg width="96" height="110" viewBox="0 0 96 110" fill="none" xmlns="http://www.w3.org/2000/svg">
<path fill-rule="evenodd" clip-rule="evenodd" d="M81.2401 79.937L80.3679 79.7915L80.0287 79.6945L79.7864 78.8701L80.0771 78.5791L80.3679 78.8701L80.4163 79.3065L81.0463 79.355L81.337 79.0641L81.1432 78.4821L80.5617 77.9002V77.3182L81.4339 76.4453H81.8216L81.9185 76.5423L81.7247 76.7363L81.6762 76.9788L81.4339 77.0273L81.1432 77.3182V77.7062L81.5309 78.0942L81.6278 78.3851L81.7974 78.7731L81.9185 79.258L81.2401 79.937Z" fill="grey"/>
<path fill-rule="evenodd" clip-rule="evenodd" d="M82.9846 78.7732H82.4031L82.1123 78.4823L82.2335 77.8033L82.4031 77.4154L82.4515 77.0759L82.1608 76.9789L82.1123 76.7364L82.4031 76.4454H82.5969L82.7907 76.2515L82.9846 76.4454H83.3722L83.8568 76.9304L83.663 78.0943L82.9846 78.7732ZM82.7907 78.1913L83.2753 77.7063V77.3184L83.1784 77.2214L82.8876 77.5123L82.7907 77.9003V78.1913Z" fill="grey"/>
<path fill-rule="evenodd" clip-rule="evenodd" d="M84.3414 77.9972L84.2444 77.9002V76.1543L84.5352 75.8634L84.7775 75.8149L84.8259 75.5724L85.3105 75.0874L85.4074 75.1844V75.4754L85.6012 75.3784L85.7951 74.6025L86.0858 74.3115H86.2796L86.5704 74.6025L86.74 75.8149H86.425L86.3281 75.5239H86.0373L85.7951 76.7363L85.5043 77.0273L85.2136 76.7363V76.2513L85.0198 76.3483L84.9228 76.8333L84.7048 77.4152L84.6321 77.7062L84.3414 77.9972Z" fill="grey"/>
<path fill-rule="evenodd" clip-rule="evenodd" d="M79.8833 76.2513L79.7864 76.1543L79.6895 75.4754L79.4714 74.8935L79.3987 74.6025L79.6895 74.3115L79.9802 74.6025V75.2814L80.1741 75.1844V74.7965L80.4648 74.5055H80.6586L80.9494 74.7965L80.9978 75.0389L81.4339 75.0874L82.1123 74.4085L82.1608 73.972L82.4031 73.9235L82.6938 73.6326V73.4386L83.566 72.5657L84.196 72.6142L84.1475 72.9536L83.9537 73.3416L83.8568 73.6326L83.3722 74.1175H83.1784L83.0815 74.2145L83.3722 74.5055L83.6629 74.4327L84.3898 74.36V74.651L84.0506 74.748L82.9845 74.8935L82.6938 74.6025V74.3115L82.5 74.4085V74.6025L81.4339 75.6694H80.8524L80.6586 75.4754L80.3679 75.7664L80.3194 76.0088L80.0771 76.0573L79.8833 76.2513Z" fill="grey"/>
<path fill-rule="evenodd" clip-rule="evenodd" d="M71.8395 86.4112L71.3549 86.5325L70.9673 86.1445L70.725 86.096L70.4827 83.8652H70.8461L71.0642 85.4656L71.5487 85.9505L72.1787 85.7081L72.421 85.0776L72.9055 84.5927L73.1478 84.6412L73.2932 85.1746L73.3901 85.8535L73.0994 86.1445L72.7117 85.7566L72.6148 85.8535L72.5663 86.096L71.8395 86.4112Z" fill="grey"/>
<path fill-rule="evenodd" clip-rule="evenodd" d="M76.7821 85.1744L76.4913 84.8835L76.3944 84.3985L76.0552 83.4771L75.8129 83.4286L75.5222 83.7196L75.4495 84.0105L75.2315 84.5925L75.1346 85.0774L74.8438 85.3684L74.5531 85.3199V82.7012H74.8923L74.9407 83.3316L75.0376 83.4286L75.6191 82.8467H76.2006L76.6852 83.3316L76.7579 83.6226L76.9759 84.2045L77.0728 84.8835L76.7821 85.1744Z" fill="grey"/>
<path fill-rule="evenodd" clip-rule="evenodd" d="M68.3021 87.6477L67.866 87.6962L67.3815 87.2113L67.3088 86.9203L66.1216 83.2347L66.0247 82.7497L65.8308 82.5557L65.9278 82.4587L66.4123 82.58L66.8 82.6042L68.3506 82.1435L68.7382 81.998L69.2713 81.9253V82.4102L67.5753 82.9437L66.7031 83.0407L66.6061 83.1377L66.8 83.3317L66.8969 83.8166L67.0907 84.3986L67.1876 84.8835L67.4784 85.1745L68.5444 84.8835L69.2713 84.835L69.3197 85.0775L69.029 85.3685L68.7382 85.4412L68.1568 85.6594L67.6237 85.8049L67.6964 86.3384L67.7691 86.6293L68.0599 86.9203L68.3021 86.9688V87.6477Z" fill="grey"/>
<path fill-rule="evenodd" clip-rule="evenodd" d="M77.412 77.2697L76.2006 78.0699L75.6191 78.1911L75.3284 77.9001L75.4495 77.2212L75.7645 76.4938L76.1037 76.3483L76.4913 76.1543L76.7821 76.0573L76.9759 76.2513L77.0728 76.1543V75.7663L77.7512 75.0874L77.9935 75.1359L77.945 75.6693L77.7512 76.2513L77.6543 76.7362L77.945 77.0272L78.2358 76.7362V76.3483L78.5265 76.0573L78.7688 76.1058L78.6961 76.8332L78.6234 77.1242L78.3327 77.4152L78.0419 77.4879L77.5089 77.5607L77.412 77.2697ZM76.879 76.7362L76.7821 76.6393L76.1521 76.8817L75.9099 77.5122L76.0068 77.6092L76.879 76.7362ZM77.0728 76.6393V76.4453H76.879V76.6393H77.0728Z" fill="grey"/>
<path fill-rule="evenodd" clip-rule="evenodd" d="M65.8308 75.7422L65.1524 75.8635L64.8617 75.5725L64.7648 75.2815L64.571 74.8936L64.4256 74.5541H64.1348L63.9895 74.8936L63.6018 75.6695L63.5049 75.9605L63.2142 76.2514L62.6327 76.4454L62.3419 76.1544L62.0754 75.2815L61.9785 73.9721H62.2935L62.6811 75.2815L62.7296 75.5725L62.8265 75.6695L63.1173 75.3785L63.2142 75.0875L63.408 74.6996L63.5049 74.4086L64.1833 73.7297L64.7648 73.9237L65.0555 74.2146L65.2493 74.9906L65.5401 75.2815L65.7339 75.0875L67.7691 73.4387H68.1568L68.496 73.5842L68.7382 74.2146L69.029 74.5056H69.6105L69.9981 74.1176H70.1919L70.9672 73.3417L72.324 73.5357L72.5179 73.7297L72.7117 73.5357L72.9055 73.7297L73.8747 72.7598L74.5046 72.8083V73.0992L74.2623 73.1477L73.2932 74.1176L71.1611 73.9237L70.3858 74.6996H70.1919L69.8043 75.0875L69.3197 75.2088L68.9321 75.1845L68.6413 75.0875L68.3506 74.7966V74.6026L67.866 74.1176H67.6722L67.3814 74.4086V74.6026L66.5092 75.4755L66.2185 75.5725L65.8308 75.7422Z" fill="grey"/>
<path fill-rule="evenodd" clip-rule="evenodd" d="M84.4383 68.5649L82.7907 68.4922L81.9185 67.6193L81.8458 67.3283L81.7731 66.7948L82.0154 66.7463L82.3062 67.0373V67.2313L83.1784 68.1042L84.2444 68.0072L85.795 67.6435L87.0549 67.5223L87.3457 67.8132L87.4426 68.1042L87.491 68.4437H87.0065L86.958 68.2012L86.6673 67.9102L86.3765 67.983L85.795 68.2012L84.4383 68.5649Z" fill="grey"/>
<path fill-rule="evenodd" clip-rule="evenodd" d="M77.3636 67.9102L76.879 67.4252L76.8306 66.7463L74.3593 66.8918L73.6324 66.9888L73.584 67.4252L73.2932 67.7162H73.0994L72.8086 67.4252L72.7602 66.9645L69.1259 67.304L68.0599 67.9102L67.7691 67.6192L67.7207 67.3525L66.5093 67.3282L66.3154 67.5222L66.1216 67.3282L65.9278 67.5222L60.2583 67.7405L60.3552 69.0256L60.113 69.0741L59.6284 68.5891L59.5073 67.9102L59.3377 67.5222L59.2407 67.2313L59.4346 67.0373L59.2407 66.8433L59.4346 51.5188L59.1438 51.2278L57.9809 51.0338L57.6901 50.7428L57.7386 50.5004L57.9809 50.4519L58.1747 50.2579L58.3685 50.4519L60.2099 50.7671L60.7914 50.9126L63.6988 51.349L64.4256 51.3733L64.4741 50.7428L64.7648 50.4519L65.0556 50.7428L65.104 51.3733L65.637 51.446L70.0466 51.6157L70.1435 51.2763H70.6281L70.725 51.6157L74.4562 51.4218L74.5531 51.3248L74.3593 51.1308V50.5488L74.65 50.2579L74.8923 50.3064L75.183 51.2035L77.7512 51.0338L78.042 51.3248L77.8481 51.5188L77.9451 51.6157L80.5133 52.2462L80.5617 52.4887L80.271 52.7796H79.8833L79.6895 52.5857L79.5926 52.6826L79.2049 55.5924L79.0111 55.7863L79.108 55.8833L80.3679 55.5924L81.2401 55.4954L81.7247 55.9803V56.3683L81.2401 56.8532L80.804 56.8047L80.7556 56.5623L80.9494 56.3683L80.8525 56.2713L80.1741 56.3683L79.0596 56.7078L78.7204 58.5991L78.6477 59.9085L79.108 59.9569L79.3988 60.2479L79.3503 60.4904L78.7204 60.5389L78.4296 60.8299L77.6543 65.6794L77.4605 65.8734L77.6543 66.0674L77.4605 67.8132L77.3636 67.9102ZM64.4014 53.3616L64.4498 52.2462L60.9852 51.6885L60.2099 51.6642L60.4037 54.0405L60.2099 54.2345L60.4037 54.4285V55.0104L60.2099 55.2044L60.4037 55.3984L60.2099 55.5924V57.2412H64.0864L64.4014 53.3616ZM63.6019 60.1509L63.8926 59.86L63.6988 59.666L63.8926 59.472L64.038 57.8232H60.2099V59.9327L63.6019 60.1509ZM77.2667 56.1743L78.3327 56.0773L78.6235 55.7863L78.7204 54.7194L78.9142 53.7495L79.0111 52.8766L79.2049 52.6826L79.108 52.5857L78.8173 52.5372L77.8481 52.2704L77.3636 52.1977L76.9759 52.5857H76.2006L76.0068 52.7796L75.7161 52.4887V52.2947L75.9099 52.1007L75.813 52.0037H75.4253L75.1346 52.2947L74.8196 55.3014L74.7711 56.4168L77.2667 56.1743ZM66.8 57.1442L69.2713 57.0472L69.6832 52.4159L68.6414 52.3917L68.4475 52.5857L68.2537 52.3917L65.0798 52.2462L64.6921 57.2412L66.8 57.1442ZM71.8395 56.7563L73.9231 56.6593L74.2623 54.1375L74.3593 52.2219L70.5796 52.3917L70.2889 52.6826L70.0951 54.6225L70.2889 54.8164L70.0951 55.0104V56.8532L71.8395 56.7563ZM77.7512 60.1509L78.042 59.86L78.3812 57.2412V56.8775L74.5773 57.2655L74.3593 60.3449L77.7512 60.1509ZM73.5597 60.5389L73.9716 57.3382L73.8747 57.2412L73.6809 57.4352L69.9255 57.6534L69.5863 59.9569L69.562 60.5389H73.5597ZM68.9079 60.5389L69.1259 58.1141L69.3198 57.9201L69.2228 57.8232H65.5401L65.3463 58.0171L65.1525 57.8232L64.6921 57.8716L64.4983 60.2964L65.2494 60.3934L68.9079 60.5389ZM66.9938 66.6008L67.6722 66.5523L67.963 66.2613L67.9145 65.9704H66.3154L66.1216 65.7764L65.9278 65.9704L65.734 65.7764H64.3772L63.9895 66.1644L63.7472 66.1159L63.6503 65.6309L62.7296 65.2914L61.6151 64.952L61.5667 64.7095L61.8574 64.4185L62.5358 64.5155L63.3111 64.7337L63.6988 64.758V60.9754L60.0161 60.5631V66.9403H63.0204L63.2142 66.7463L63.408 66.9403L63.6019 66.7463L66.9938 66.6008ZM68.1083 65.1944L68.6414 62.2847L68.714 61.3633L64.6679 60.9511L64.2802 60.9754V65.0005L68.1083 65.1944ZM76.7821 65.9704L77.0728 65.6794L77.7755 61.3148L77.7997 60.7814H77.4605L75.2315 61.1208L75.0377 60.9269L74.8438 61.1208L74.1654 61.1693L73.8505 64.2245L73.8262 64.758L74.1654 64.7095L74.5531 64.564L75.4738 64.4428L75.5222 64.7095L75.0377 65.1944L74.7469 65.2914L74.3593 65.4612L73.8747 65.5824L73.584 65.8734L73.6324 66.1401L76.7821 65.9704ZM70.4827 65.2914L72.954 64.952L73.269 63.4486L73.3901 61.1451L72.5179 61.1208L72.3241 61.3148L72.1302 61.1208L71.9364 61.3148H71.5488L71.3549 61.1208L71.1611 61.3148H69.344L69.1986 62.8667L68.811 64.8065L68.7867 65.3884L70.4827 65.2914ZM69.1259 66.5038L72.7117 66.1644L72.8086 65.9704L68.5929 66.1644V66.5038H69.1259Z" fill="grey"/>
<path fill-rule="evenodd" clip-rule="evenodd" d="M27.4531 40.6558L26.2901 41.4317L25.9994 41.5287L25.6117 41.9166H24.8364L24.6426 42.1106L24.4487 41.9166H23.6734L23.1889 41.4317L22.7043 39.7828L22.6074 39.1039L22.5105 39.0069L21.1537 40.3648L20.3784 40.7527L19.9907 41.1407L18.6339 41.3347L17.9555 40.6558L17.8586 40.3648L17.6648 39.9768L17.5679 39.6859L17.7617 39.4919L17.5679 39.2979L17.7617 39.1039L17.8828 38.425L18.2463 37.649L18.3432 37.3581L19.0216 36.6791L19.4092 37.0671H19.6031L19.8938 37.3581L19.8453 37.6006H19.3608L19.3123 37.3581L19.2154 37.2611L18.9247 37.5521L18.8277 37.843L18.6339 38.231L18.4886 38.619L18.3432 40.0738L18.8277 40.5588L19.7 40.4133L20.1845 40.1708L23.2858 37.4551L23.5765 37.746L23.3827 37.94L23.5765 40.6558L24.0611 41.1407L24.3518 41.2135H25.1271L25.9024 40.8497L26.7747 40.3648L28.2284 38.9099L28.4464 37.1156L28.9068 37.0671L29.1975 37.3581L29.0764 38.425L28.8825 39.0069L27.9861 40.3163L27.4531 40.6558Z" fill="grey"/>
<path fill-rule="evenodd" clip-rule="evenodd" d="M39.5673 30.4717L39.1312 30.4232L39.01 30.0837V29.5018L39.0827 29.2108L39.5673 28.7259L39.858 28.6531L40.391 28.5804L40.3426 29.1138L40.1245 29.6958L40.0518 29.9867L39.5673 30.4717Z" fill="grey"/>
<path fill-rule="evenodd" clip-rule="evenodd" d="M19.7969 30.6657L18.9731 30.6415L18.9247 29.9868L18.7308 29.7928L19.7969 28.7259L20.5722 28.5319L20.8629 28.8229L20.7902 29.1139L20.548 29.6958L20.4753 29.9868L19.7969 30.6657ZM19.8938 29.8898V29.6958H19.7V29.8898H19.8938Z" fill="grey"/>
<path fill-rule="evenodd" clip-rule="evenodd" d="M42.8623 103.991H41.8932L41.5056 103.603L40.2457 103.288L39.858 103.118L39.3735 102.827L37.8228 101.663L37.3383 101.178L36.563 100.014L36.1753 99.6262L36.0542 99.1412L35.6907 98.1713L35.5938 97.4924L35.4 97.2984L35.5938 97.1044L35.4 96.9104L35.715 90.606L35.9815 89.3451L35.8846 89.2481L35.6907 89.4421L35.2062 89.5634L33.6556 90.1211L33.171 90.2181L32.9772 90.412L32.7833 90.2181L32.5895 90.412H31.0389L30.8451 90.606L30.6512 90.412L29.5852 90.315L28.0346 89.9028L27.2593 89.5634L26.7747 89.4421L26.387 89.0542L26.0963 88.9572L25.2241 88.4722L23.5765 86.8234V86.6294L23.2858 86.3384L22.9951 86.6294L22.9224 86.9204L22.3167 88.4722L21.3718 92.5458L21.2022 97.5893L21.3475 98.5593L21.5656 99.3352L21.929 100.111L22.6074 101.178L23.092 101.663L24.158 102.318L24.7395 102.512L25.7086 102.706H27.8407L29.0037 102.512L29.5852 102.342L30.1667 102.124L30.4574 102.051L30.6512 101.857L30.942 102.148V102.342L30.6512 102.633L30.3605 102.73L29.3914 103.118L28.6161 103.312L27.55 103.409L27.3562 103.603L27.1623 103.409L24.9333 103.263L24.3519 103.094L23.9642 102.924L23.092 102.439L21.6383 100.984V100.79L21.2506 100.402L21.1295 99.9171L20.7903 98.9472L20.6207 97.9773L20.7903 92.3518L21.5414 88.8602L22.1471 87.1143L22.4863 86.3384V85.5625L22.3167 85.1745L21.8321 84.3016L21.4444 83.9137L21.3233 83.4287L20.4269 81.1009L20.0392 79.4036L19.5546 79.3066L19.6273 78.7731L19.7727 78.3852L19.8211 77.6093L19.5789 76.2514L19.0216 74.3116L18.634 73.3417L17.4952 71.2079L17.3741 70.7229L16.9864 70.3349V68.5891L17.1802 68.3951L16.9864 68.2012L17.9556 61.7998L18.1494 61.6058L17.9556 61.4118L18.1494 61.2178L18.2705 60.7329L18.4159 60.3449L19.0458 58.0171L19.1912 57.6292L19.7969 55.4954L20.863 52.8766L21.2506 52.4887L21.4444 51.7127L21.8321 51.3248V50.9368L22.2198 50.5488L23.8673 47.5421L23.9642 47.2512L24.2549 46.9602H24.4488L24.9333 46.4752V46.2812L26.9685 44.2444H27.1623L27.4531 43.9535V43.7595L27.7438 43.4685H27.9377L28.6161 42.7896L28.5191 42.6926L19.1185 43.9292L13.6914 43.905L12.5284 43.7595L10.9778 43.3473L9.62099 42.7896L8.65185 42.2076L7.14969 41.0922L6.03519 39.3949L5.50216 38.037L5.01759 35.9032L5.11451 34.9818L4.29074 34.7394L4 34.4484L4.04846 33.7937L5.30833 33.7452L5.81713 32.2176L5.93827 31.5387L6.32593 31.1507L6.42284 30.8597L7.68272 28.435L9.62099 25.7192L11.2201 23.7309L11.5108 23.6339L11.5593 23.3914L11.85 23.1005L12.0923 23.052L12.1892 22.761L12.4799 22.664L12.5769 22.373L12.8676 22.276L12.916 22.0336L15.1451 19.8028L15.7265 19.4148L17.3741 18.1539L19.1185 16.99L24.158 14.6623L26.8716 13.8621L27.3562 13.7894L27.8407 14.2743L27.7923 14.5168L25.9025 15.0502L22.9951 16.2141L19.7969 17.863L17.471 19.4148L15.5327 20.9667L14.4667 22.0336L14.4182 22.276L14.1759 22.3245L13.8852 22.6155L13.8367 22.858L13.546 22.955L13.4491 23.2459L13.1583 23.3429L13.0614 23.6339L12.7707 23.7309L12.7222 23.9734L12.2377 24.4583L11.9954 24.5068L10.9778 25.9132L10.784 26.1072L10.8809 26.2042H11.0747L11.4623 25.8162H11.85L12.2377 25.4282L12.6738 25.4767L12.7707 25.7677L17.6648 25.2343L17.8586 25.4282L18.0525 25.2343L20.2815 25.1373L22.7043 24.8463L22.8981 25.0403L23.092 24.8463L25.4179 24.6523L25.6117 24.8463L25.8056 24.6523L32.1049 24.4826L33.171 24.6523L33.3648 24.4583L33.5586 24.6523L33.7525 24.4583L33.9463 24.6523L34.1401 24.4583L34.334 24.6523H34.7216L34.9154 24.4583L35.1093 24.6523H35.3031L35.4969 24.4583L35.6907 24.6523L35.8846 24.4583L36.0784 24.6523L36.2722 24.4583L36.4661 24.6523L36.6599 24.4583L40.9241 24.2644L41.1179 24.0704L41.3117 24.2644H45.5759L45.7698 24.0704L45.9636 24.2644L46.1574 24.0704L49.0648 23.8764L49.2586 23.6824L49.4525 23.8764L53.9105 23.4884L54.1043 23.2944L54.2981 23.4884L54.7343 23.5369L54.7827 23.9734L54.5889 24.1674L55.3642 24.9433L55.4853 25.4282L55.6307 25.8162L56.0184 27.1741L56.1395 28.047V28.144L56.3333 28.047L56.4302 27.756L57.0117 26.2042L57.1571 25.4282V23.2944L57.0117 22.5185L56.6241 21.5486L56.4302 21.1606L56.3333 20.8697L54.6858 19.2208L52.6506 18.1539L52.3599 18.0569L51.9722 17.669L51.4877 17.5477L48.9679 16.6021L46.642 16.0201L41.6025 15.2927L35.2546 15.1472L35.2062 15.4382L34.9154 15.7292H34.7216L34.1401 16.3111H33.7525L33.4617 16.6021L33.4133 16.8446L33.171 16.8931L32.8802 16.6021L32.638 15.5594L31.7173 15.6564L25.1272 17.572L22.8012 18.5419L20.2815 19.8998L19.1185 20.6757L18.8278 20.7727L17.7617 21.8396L17.9556 22.0336L17.9071 22.47L17.3741 22.3973L17.0833 22.3245L16.7926 22.0336V21.4516L17.8586 20.3847L18.2463 20.1907L20.863 18.5419L21.1537 18.4449L21.5414 18.0569L22.0259 17.9357L27.4531 15.8262L31.3296 14.8562L32.2503 14.735L32.2019 13.9833L31.2085 11.0736L31.1843 10.7341L31.6204 10.6856L31.9111 10.9766L31.9838 11.2676L32.5895 12.8194L32.8076 13.5954L33.1225 14.5168L33.8494 14.444L34.1886 14.3228L34.334 13.5954L35.6907 9.52176L35.7877 9.03681L36.0784 8.74583L36.3691 9.03681L36.2722 9.71574L35.4727 12.4315L34.8912 13.9833L34.867 14.3228L35.3031 14.3713L36.8537 12.8194L37.3383 12.5285L43.3469 8.26088L44.7037 7.48495L44.9944 7.38796L45.3821 7L45.8182 7.0485L45.8667 7.48495L45.5759 7.77593L42.6685 9.52176L36.4661 13.9833L36.3691 14.0803L36.6599 14.3713H36.8537L37.0475 14.1773L37.2414 14.3713L43.3469 14.6623L46.8358 15.2442L50.9062 16.4081L51.8753 16.7961L54.2981 18.0569L54.8796 18.4449L55.2673 18.6389L56.9148 20.2877L57.569 21.5486L57.787 22.1306L58.2232 24.0704V24.4583L57.7386 26.9801L57.1813 28.338L56.6483 29.3079L56.5998 29.8898L57.1086 31.7326L56.8179 32.0236L56.3333 31.9024L55.3642 31.5144L54.2981 32.2176L53.1352 33.1875L48.9679 35.8062L48.5802 36.0002L48.2895 36.0972L47.9019 36.4852L47.4173 36.6064L46.642 36.9701L45.6728 37.5521L43.7346 38.328L43.25 38.425H43.1531L43.25 38.619L43.5407 38.716L44.8975 39.4919L45.1883 39.5889L47.2235 41.6257L47.6111 42.2076L48.2895 43.0806L48.6772 43.6625L49.6463 45.7963L49.7432 46.2812L50.034 46.5722L50.4216 46.1843L50.7123 46.0873L52.0691 45.5053L56.5272 43.3958L57.2056 43.2745L57.6901 42.7896L57.3025 42.2076L56.5272 41.2377L56.1395 40.6558L55.1704 39.6859L55.2673 39.5889L57.4963 39.1039L60.0161 38.328L60.9852 37.9643L61.6636 37.8431L62.1482 38.328L62.0512 38.619L61.8816 39.0069L60.9852 41.8197L60.5975 42.2076V42.5956L60.2099 42.9836L59.9676 43.614L59.6769 43.711L59.5315 44.0505L57.5932 46.5722L56.2364 49.6759L54.2981 59.569L54.1286 72.3718L54.71 76.0574L56.0426 80.713L57.3994 84.0106L57.5932 84.3986L58.3201 85.514L58.6108 85.611L58.6593 85.8535L61.0821 88.2782L61.4698 88.4722L63.6988 89.9271L64.8617 90.4848L65.4432 90.6788L67.1877 91.0667L68.7383 91.0425L69.029 90.994L69.2228 91.188L69.4167 90.994L70.4827 90.8727L74.2623 89.8301L74.65 89.4421L74.9407 89.3451L77.5574 87.8903L81.4824 84.9321L81.5793 84.6411L81.8701 84.5441L81.967 84.2531L82.2577 84.1561L82.3546 83.8652L82.6454 83.7682L82.6938 83.5257L82.9846 83.2347H83.1784L84.2444 82.1678L85.4074 80.616L88.7994 74.6995L88.8963 74.4086L88.7994 74.3116L88.6056 74.5056L87.2488 74.6995L86.5704 74.0206L86.7157 72.7597L86.958 71.8868L87.6364 71.2079H87.8302L88.0241 71.0139L88.3148 71.3049L88.1694 72.1778L87.8302 72.7597L87.3457 73.4387L87.1519 73.8266L87.4426 74.1176L88.3148 73.9721L89.2355 73.6811L90.7377 68.4921L90.883 67.3282V64.0306L90.5196 61.8968L90.35 61.3148L89.5747 59.375L89.0901 58.5021L88.3148 57.3382L87.0549 55.6893L86.7642 55.2044L82.5969 51.0338L82.2093 50.8398L81.6278 50.4518L80.0772 49.288L79.0111 48.609L74.9407 46.6935L73.3901 46.3055L72.0333 46.1358L66.1216 45.9903L65.9278 46.1843L65.734 45.9903H65.1525L64.9586 46.1843L64.7648 45.9903L64.571 46.1843L63.6988 46.3297L63.3111 46.451L62.6327 46.5722L62.342 46.2812L62.5358 46.0873L62.5843 45.8448L63.3111 45.6993L63.8926 45.5053L64.6679 45.5296L65.0556 45.5781L73.1963 45.6993L75.3284 46.2812L76.2975 46.6692L79.8833 48.512L82.5969 50.4518L84.5352 52.0037L86.958 54.4285L87.2488 54.9134L89.6716 58.3081L89.9381 58.7931L90.9315 61.3148L91.3191 62.8667L91.4645 64.0306V67.5222L91.1253 69.462L90.35 72.3718L89.3809 74.8935L88.6298 76.4454L88.5086 76.9303L88.121 77.3183L88.0241 77.6093L87.5395 78.4822L85.7951 81.1979L84.4383 82.9437L82.5969 84.7866L78.7204 87.8903L77.6543 88.5692L75.3284 89.9271L72.8086 90.897L70.4827 91.4789L69.8043 91.5759L69.6105 91.7699L69.4167 91.5759L66.9938 91.6729L65.637 91.4547L64.4741 91.091L63.9895 90.994L63.6019 90.606L63.3111 90.509L62.5358 90.1211L61.9543 89.7331L61.179 89.1512L60.6944 88.8602L58.0778 86.2414L57.0117 84.7866L54.8796 79.3551L54.1043 76.2514L53.3775 71.0139L53.7167 59.181L54.492 54.3315L54.8796 52.7796L55.0735 51.6157L55.873 48.9L57.2298 45.9903L58.5623 44.2444L58.8531 43.7595L58.5623 43.4685L57.884 43.5898L55.9457 44.3414L55.558 44.5354L55.2673 44.6324L54.8796 45.0204L54.3951 45.1416L51.8753 46.257L51.3907 46.3782L51.0031 46.7662L50.4216 46.9602L50.1309 47.2512L51.3907 52.7796L51.1969 66.7463L50.785 69.0741L49.2586 74.1176L48.871 75.0875L46.642 79.4521L46.2543 79.84L46.3512 80.325V80.9069L46.2543 81.3919L45.8667 81.7799V81.9738L45.5759 82.2648L45.1398 82.2163L45.0914 81.9738L44.9944 81.8768L44.3161 82.5558L42.9593 84.3016L41.3117 85.9505L40.7302 86.3384L39.9549 86.9204L37.7259 88.3752L36.9506 88.7632L36.5872 88.9087L36.1269 96.8134L36.2965 97.9773L36.4661 98.5593L36.6841 99.1412L37.1444 100.014L39.1796 102.051L40.4395 102.706L41.2148 102.948L41.9901 103.288L43.1046 103.263L43.1531 103.7L42.8623 103.991ZM33.6556 16.3111V16.2141L33.7282 15.9231L33.8009 15.3897H33.3164L33.3406 15.7292L33.4617 16.2141L33.6556 16.3111ZM9.91173 29.8898L12.2377 27.562L13.4006 26.7861L13.4975 26.5921H13.4006L12.2377 26.7861L11.1716 27.853L10.1056 29.4049L9.91173 29.8898ZM15.1451 30.2778L17.2772 28.5319L17.471 28.338L17.7617 28.6289V29.0169L17.1802 29.5988V29.7928L17.2772 29.8898L17.471 29.6958H17.6648L17.9556 29.4049L18.1494 28.6289L17.7617 28.241L18.1494 27.465L19.3123 26.3012L19.2154 26.2042H17.6648L17.471 26.3981L17.2772 26.2042L14.9512 26.3981L14.6605 26.6891L14.4667 27.0771L10.2025 32.7025L10.0086 33.0905L10.1056 33.1875L12.916 30.3748V30.1808L13.2068 29.8898L13.4491 29.8413L13.4975 29.5988L13.7883 29.3079L14.0306 29.2594L14.079 29.0169L15.9204 27.1741H16.1142L16.4049 27.465L16.2111 27.853L13.8852 30.7627L12.916 32.3146L13.013 32.4116L13.7883 31.6356H13.9821L15.1451 30.2778ZM9.81482 27.562V27.3681H9.62099V27.562H9.81482ZM13.1099 27.95V27.756H12.916V27.95H13.1099ZM12.916 28.144V27.95H12.7222V28.144H12.916ZM8.74877 33.9634L8.84568 33.8664V33.4785L9.23333 33.0905L9.42716 32.7025L9.81482 32.1206L12.4315 28.7259L12.7222 28.241L12.6253 28.144L11.0747 29.6958L9.52407 30.8597L7.00432 33.3815L6.81049 33.1875L6.51975 33.4785L6.61667 33.5755L7.68272 33.6725L8.74877 33.9634ZM7.39198 31.6356L8.07037 30.9567V30.7627L8.65185 30.1808L8.55494 30.0838H8.36111L8.16728 29.8898L7.87654 30.1808L7.4162 31.0537L7.29506 31.5387L7.39198 31.6356ZM7.29506 32.0236V31.7326L7.10123 31.6356V31.8296L7.29506 32.0236ZM7.10123 32.2176V32.0236H6.90741V32.2176H7.10123ZM14.2728 32.4116V32.2176H14.079V32.4116H14.2728ZM11.9469 32.6056V32.4116H11.7531V32.6056H11.9469ZM12.916 32.6056V32.4116H12.7222V32.6056H12.916ZM14.9997 34.3514L15.7265 33.1875L15.9204 32.7995L16.5988 31.7326L16.7926 31.3447L16.6957 31.2477L14.3698 33.5755L13.7398 33.527L13.6914 33.0905L14.079 32.7025V32.5086L13.9821 32.4116L12.916 33.4785V33.6725L12.3346 34.2544L12.4315 34.3514H14.9997ZM10.9293 34.3029L11.1716 33.4785L11.7531 32.8965V32.7025L11.6562 32.6056L10.2025 34.0604L10.2994 34.1574L10.9293 34.3029ZM12.7222 32.7995V32.6056H12.5284V32.7995H12.7222ZM12.5284 33.1875V32.9935H12.3346V33.1875H12.5284ZM10.0086 33.3815V33.1875H9.81482V33.3815H10.0086ZM12.3346 33.3815V33.1875H12.1407V33.3815H12.3346ZM9.81482 33.5755V33.3815H9.62099V33.5755H9.81482ZM23.1889 26.0102V25.8162H22.9951V26.0102H23.1889ZM27.0654 26.6891L26.9685 26.5921L24.6426 28.9199L24.0127 28.8714L23.9642 28.435L24.7395 27.659L24.8122 27.3681L25.2241 26.3981L25.321 26.1072L25.5148 25.9132L25.4179 25.8162H23.4796L23.1889 26.1072L23.3827 26.3012L23.5765 27.659L23.7704 27.853L23.5765 28.047L23.4554 29.3079L23.2616 30.0838L23.1162 30.4718L22.9951 30.9567L22.6074 31.3447L22.5105 31.6356L22.0259 32.5086L21.0568 33.4785L21.1537 33.5755L24.6911 33.139L24.8606 32.4116L25.0302 32.0236L25.1272 31.7326L25.0302 31.6356L24.8364 31.8296L24.5457 31.9024L23.8188 31.9751L23.7704 31.3447L24.158 30.9567L24.2549 30.6657L26.6778 27.465L27.0654 26.6891ZM26.9685 26.0102L27.0654 25.8162H25.8056L25.7086 25.9132L25.9025 26.1072V26.4951L25.9994 26.5921L26.387 26.2042L26.9685 26.0102ZM18.7309 33.8664L19.6031 33.7694L20.9599 32.4116H21.1537L21.4444 32.1206L22.3167 30.4718L22.7043 29.5019L22.8981 28.7259V27.562L22.8012 26.8831L22.1228 26.2042L20.5722 26.3981L20.2815 26.6891L20.233 27.1256L19.9423 27.2226L19.1185 28.435L18.7309 28.8229L18.634 29.3079L18.2463 30.4718L17.8829 32.0236L17.7617 33.6725L18.0525 33.9634L18.7309 33.8664ZM25.9025 26.7861V26.5921H25.7086V26.7861H25.9025ZM35.3031 32.6056L35.4969 32.4116L36.563 32.3873L36.7083 30.0838L36.8537 29.3079L37.0718 28.7259L38.1136 26.6891L39.2765 25.5252L39.1796 25.4282H36.8537L36.6599 25.6222L36.4661 25.4282L28.9068 25.6222L28.713 25.8162L28.5191 25.6222L28.2284 25.9132V26.3012L27.8407 26.6891L27.7438 26.9801L27.0654 28.047L25.321 30.3748L25.4179 30.4718L28.713 27.1741H28.9068L29.8759 26.2042H30.2636L30.4574 26.0102L30.5543 26.1072V26.4951L29.0037 28.047L26.0963 31.5387L25.7571 32.1691L26.484 31.7326L27.6469 30.7627L32.9772 26.7861L33.3648 26.5921L33.7525 26.2042L34.5762 26.2284L34.4309 26.6891L31.9111 29.7928L31.5235 30.3748L31.6204 30.4718L31.8142 30.2778L32.3957 29.8898L34.5278 28.144L35.2062 27.659L35.5938 27.465L35.8846 27.3681L36.1753 27.659L35.9815 27.853L35.5938 28.435L34.334 30.0838L33.9463 30.6657L33.7525 31.0537L33.6556 31.3447L33.7525 31.4417L34.7216 30.4718L35.4969 30.0838L35.7877 30.3748L35.6907 30.8597L35.3273 31.8296L35.2062 32.5086L35.3031 32.6056ZM17.1802 30.0838V29.8898H16.9864V30.0838H17.1802ZM16.9864 30.2778V30.0838H16.7926V30.2778H16.9864ZM25.321 30.6657V30.4718H25.1272V30.6657H25.321ZM16.9864 31.2477V31.0537H16.7926V31.2477H16.9864ZM25.5148 31.4417V31.2477H25.321V31.4417H25.5148ZM25.321 31.6356V31.4417H25.1272V31.6356H25.321ZM17.1802 32.4116V32.2176H16.9864V32.4116H17.1802ZM25.7086 32.4116V32.2176H25.5148V32.4116H25.7086ZM28.6161 32.8965L32.9772 32.6056L33.0741 32.4116H32.9772L32.7106 32.3631L32.8318 31.4417L33.0741 30.5687L33.2679 30.3748L33.171 30.2778L31.2327 31.8296L30.1667 32.5086H29.779L29.4398 32.3631L29.3914 31.9266L29.779 31.5387L29.8759 31.2477L30.9904 29.5503L31.2812 29.4534L31.3296 29.2109L32.1049 28.435L32.008 28.338L31.5235 28.6289L26.387 32.6056L26.0963 32.8965L26.1932 32.9935L28.6161 32.8965ZM16.7926 34.0362L17.0833 33.9634L17.1802 33.8664L16.9864 33.6725V32.7025L16.8895 32.6056L16.5988 32.8965L16.5019 33.1875L16.3323 33.5755L16.2596 34.1089L16.7926 34.0362ZM25.9994 33.1875L26.0963 32.9935H25.8056L25.7086 33.1875H25.9994ZM39.4704 38.716L40.0519 38.4977L40.3426 38.425L40.4395 38.231L37.7744 38.0128V37.4793L39.2765 37.5521L40.6333 37.7946L41.021 37.9158L41.7963 37.94L44.8975 36.8004L45.3821 36.6792L45.7698 36.2912L46.0605 36.1942L52.4568 32.5086L53.7167 31.6356L53.8136 31.4417L40.7302 32.7995L40.5364 32.9935L40.3426 32.7995L40.1488 32.9935L39.2765 33.139L38.8889 33.236L20.2815 34.4726L19.1185 34.7878L15.7265 34.9333L15.3389 35.3213L14.8543 35.2486L13.4975 35.297L7.87654 34.6181L7.29506 34.4241H6.90741L6.42284 34.5454L6.1321 34.8363L6.32593 35.0303L6.1321 35.6123L6.32593 35.8062L6.1321 36.0002L6.32593 37.1641L6.51975 37.3581L6.32593 37.5521L6.71358 37.94L6.83472 38.619L7.10123 39.1039L7.48889 39.6859L7.68272 40.0738L7.97346 40.3648L8.21574 40.4133L8.2642 40.6558L8.55494 40.9468L10.5901 42.0137L11.5593 42.4016L12.3346 42.5956L13.3037 42.7168L23.092 42.4986L23.2858 42.3046L23.4796 42.4986L23.6735 42.3046L27.6469 41.8197L34.6247 40.0738L35.3031 39.9768L35.6907 39.5889L36.4661 39.3949L36.6599 39.5889L36.8537 39.3949L37.5321 39.2979L38.6951 38.91L39.4704 38.716ZM39.3735 32.2176L40.6333 30.9567L40.7302 30.6657L41.4813 29.1139L41.869 27.562L41.8448 25.8162L41.7478 25.2828L41.5056 25.2343L41.3117 25.4282L41.1179 25.2343L40.8272 25.3312L39.7611 26.0102L39.3735 26.2042L39.0827 26.4951L37.8471 28.5319L37.629 29.1139L37.2414 30.8597L37.2898 32.0236L37.3867 32.3631L39.3735 32.2176ZM32.4926 28.144V27.95H32.2988V28.144H32.4926ZM32.2988 28.338V28.144H32.1049V28.338H32.2988ZM33.4617 30.2778V30.0838H33.2679V30.2778H33.4617ZM31.5235 30.6657V30.4718H31.3296V30.6657H31.5235ZM31.3296 30.8597V30.6657H31.1358V30.8597H31.3296ZM31.1358 31.0537V30.8597H30.942V31.0537H31.1358ZM34.3824 32.5813L34.4309 31.9266L34.334 31.8296L33.9463 32.2176H33.7525L33.4617 32.5086L33.5586 32.6056L34.3824 32.5813ZM55.0735 30.0838L55.558 29.5988L55.4611 28.7259L55.0492 26.7861L54.71 25.8162L54.5889 25.3312L53.7167 24.4583L49.0164 24.8705L48.6772 25.4282L46.642 28.047L46.7389 28.144L47.3204 27.562L47.5627 27.5135L47.6111 27.2711L47.9019 26.9801L49.2586 26.0102L49.6463 25.6222H50.034L50.2278 25.4282L50.3247 25.5252L50.2036 26.2042L49.4525 27.562L48.2895 29.1139L47.9988 29.5988L47.8049 29.7928L47.9019 29.8898L48.3864 29.5988L49.8401 28.5319L52.263 27.0771L53.2321 26.6891L53.9105 26.5921L54.3951 27.0771L54.3224 27.3681L54.0801 27.95L53.8136 28.435L53.1352 29.5019L53.0867 29.8413L53.4259 29.8171L54.6858 29.5019L54.9765 29.8898L55.0735 30.0838ZM51.7784 30.8597L51.8753 30.7627L51.6815 30.5687L51.8753 30.3748L52.5537 29.1139L53.2321 28.047L53.4259 27.659L53.6198 27.465L53.5228 27.3681L52.5537 27.562L52.1661 27.95L51.8753 28.047L50.4216 28.9199L47.6111 30.9567L47.2235 31.1507L46.9327 31.2477L46.642 30.9567L46.7631 30.2778L47.3204 29.3079L47.4657 28.9684L47.7565 28.8714L48.3864 27.853L48.9679 27.2711L48.871 27.1741L45.6728 29.9868L45.1883 30.2778L44.9944 30.4718L44.7037 30.1808L44.8248 29.6958L44.9944 29.3079L45.6728 28.241L47.2235 26.3012L47.6111 25.7192L48.3864 24.9433L48.2895 24.8463L47.9019 25.0403L47.3204 25.4282L46.4481 25.9132L45.8667 26.3012L42.4747 28.9199L41.9901 29.4049L41.869 29.8898L41.5298 30.6657L41.4086 31.1507L40.8272 31.7326L40.8756 32.0236L43.3469 31.9266L51.7784 30.8597ZM43.4438 27.3681L44.0253 26.7861L44.5099 26.4951L45.9636 25.4282L46.3512 25.2343L46.4481 25.0403L44.3645 25.2585L44.1222 25.9132L43.7346 26.3012V26.6891L43.3469 27.1741L43.4438 27.3681ZM42.9593 26.7861V26.4951L43.3469 26.1072V25.7192L43.7346 25.3312L43.6377 25.2343L42.6201 25.2585L42.7654 26.6891L42.9593 26.7861ZM42.7654 26.9801V26.7861H42.5716V26.9801H42.7654ZM46.642 28.338V28.144H46.4481V28.338H46.642ZM46.4481 28.5319V28.338H46.2543V28.5319H46.4481ZM47.8049 30.0838V29.8898H47.6111V30.0838H47.8049ZM54.9765 30.2778V30.0838H54.7827V30.2778H54.9765ZM54.492 30.6657L54.7827 30.3748L54.6858 30.2778L54.3951 30.3505L53.7167 30.4718L53.6198 30.6657H54.492ZM55.9457 30.8597V30.6657H55.7519V30.8597H55.9457ZM27.0654 46.5722V46.3782H26.8716V46.5722H27.0654ZM39.7611 82.6528L41.5056 81.4889L42.3778 81.0039L42.6685 80.9069L43.0562 80.519L43.5407 80.422L44.7037 80.034L45.3821 79.937L45.6728 79.6461L46.2543 78.6762L46.642 78.2882L46.7631 77.8032L48.0957 75.2815L48.871 73.3417L50.2278 68.8801L50.6154 66.7463L50.9062 61.7998L51.1 61.6058L50.9062 61.4118L50.8093 52.7796L49.5009 47.5906L49.1617 47.6391L45.0914 49.9669L40.7302 52.7796L39.858 53.2646L39.5673 53.3616L39.3735 53.5556L39.0827 53.2646V53.0706L39.3735 52.7796L39.6642 52.6826L40.0519 52.4887L44.9944 49.288L48.9679 47.0572L49.3071 46.9117L49.2586 46.3782L49.0648 45.7963L48.2895 44.0505L47.9019 43.4685L47.3204 42.6926L47.0296 42.2076L44.9944 40.1708L43.3469 39.2979L42.3778 38.8857L41.9901 38.91L41.6025 39.0797L40.8272 39.2979L39.2765 39.8799L36.563 40.6558L36.0784 40.7528L35.4 41.4317L35.3515 41.6742L35.0608 41.7712L35.0123 42.0137L33.171 43.8565L32.2988 44.5354L30.6512 45.9903L29.6336 46.8147L29.5367 47.1057L29.246 47.2027L29.1975 47.4451L28.3253 48.3181H28.1315L27.6469 48.803V48.997L27.3562 49.288H27.1623L26.8716 49.5789L26.8231 49.8214L26.5324 49.9184L24.158 52.6826L24.2549 52.7796L24.6426 52.3917L25.321 51.9067L38.9858 40.7528L39.6642 40.2921L40.1488 40.1708L40.4395 40.4618V40.8498L35.4969 45.7963L33.3164 47.5906L27.6469 53.6525L26.5809 54.9134L26.2901 55.3984L25.9994 55.6893L25.7571 55.7378L24.9333 56.9502L24.6426 57.2412L24.4003 57.2897L23.2858 58.7931L22.9951 59.278L22.8012 59.472L22.8981 59.569L31.1358 52.6826L31.6688 52.3432L31.7657 52.0522L32.0565 51.9552L32.1534 51.6642L36.3691 48.415L40.1488 45.9903L41.021 45.5053L41.3117 45.4083L41.5056 45.2143L41.7963 45.5053V45.8933L41.1179 46.5722L39.3735 47.9301L38.3074 48.997L36.1269 51.5672L35.8361 51.6642L35.7877 51.9067L35.4969 52.1977H35.3031L35.0123 52.4887L34.9639 52.7311L34.7216 52.7796L34.4309 53.0706L33.6556 54.0405L30.6512 57.4352L22.9951 67.2312L22.4136 68.2012L22.2682 68.6376L26.8231 64.564L26.9201 64.273L27.1623 64.2245L27.6469 63.7396L27.6954 63.4971L28.3253 63.0606L30.6512 61.1208L42.9593 51.9067L43.4438 51.6157L43.8315 51.2278L44.0253 51.4218H44.2191L44.5099 51.7127L44.0253 52.1977L43.4438 52.5856L42.5716 53.2646L42.087 53.5556L38.8889 56.7562V56.9502L38.4043 57.4352L38.162 57.4837L25.9025 71.4988L25.321 72.2748L24.7395 72.8567L24.8364 72.9537H25.0302L25.5148 72.4687L25.5633 72.2263L25.8056 72.1778L26.0963 71.8868L26.1448 71.6443L35.3031 64.2245L42.8623 58.5991L43.3469 58.3323L43.8315 58.2111L44.1222 58.5021L43.9284 58.6961L43.8799 58.9385L43.5892 59.0355L43.25 59.569L37.1444 66.8433L32.2503 72.3233L31.9596 72.4203L26.484 79.84L26.2901 80.228L26.0963 80.422L26.1932 80.519L26.4355 80.4705L26.5324 80.1795L26.8716 80.034L27.6469 79.6461L40.6333 68.9771L44.413 66.5523L44.8975 66.2856L45.3821 66.1643L45.6728 66.4553V66.8433L44.1222 68.3951L43.7346 68.9771L40.1972 73.2932L39.9065 73.3902L35.9815 78.2882L32.5895 82.0708L31.8142 83.0407L31.3781 83.7682L31.8142 83.6227L39.2765 77.7062L42.6685 75.2815L45.2852 73.8266L45.6728 73.6811L46.5935 73.5599L46.642 74.0206L46.2543 74.4086L38.7435 82.9922L39.2765 82.9195L39.7611 82.6528ZM33.0741 41.7227V41.5287H32.8802V41.7227H33.0741ZM29.0037 44.7294L32.2019 42.3046L32.5895 42.1106L32.8802 41.8197L32.7833 41.7227L32.1049 41.8197L30.3605 42.4259L30.0698 42.4986L29.779 42.7896L29.6821 43.0806L29.2944 43.6625L28.6161 44.5354L28.2769 45.1659L29.0037 44.7294ZM32.4926 43.2745V43.0806H32.2988V43.2745H32.4926ZM32.2988 43.4685V43.2745H32.1049V43.4685H32.2988ZM32.1049 43.6625V43.4685H31.9111V43.6625H32.1049ZM31.8142 43.8565L31.9111 43.6625H31.6204L31.5235 43.8565H31.8142ZM31.475 44.1959L31.5235 43.9535L31.4265 43.8565L31.1358 44.1475L31.2327 44.2444L31.475 44.1959ZM20.5722 77.2213L20.863 76.9303L22.4136 74.6025L35.9815 58.6961L38.5012 56.1743L38.4043 56.0773L38.0167 56.2713L30.7481 61.9937L23.8188 68.3466L23.7704 68.5891L23.2858 69.0741H23.092L21.5414 70.6259L20.6934 70.6017L20.8145 69.462L20.9599 69.0741L22.4136 66.6493L28.5191 58.7931L35.4485 50.8883L35.7392 50.7913L35.7877 50.5488L37.1444 49.191L37.0475 49.094L36.6599 49.288L30.2151 54.38L30.1182 54.6709L29.5852 55.0104L23.2858 60.3449L20.6691 62.9637V63.1576L19.2154 64.6125L19.0216 64.4185L18.7551 64.37L18.7309 63.5456L19.1185 63.1576L19.3123 62.7697L20.4753 61.0238L23.7704 56.7562L24.158 56.1743L24.4488 55.8833L24.6911 55.8348L26.8716 53.0706L27.1623 52.7796L27.4046 52.7311L28.2769 51.4703L28.5676 51.3733L28.6161 51.1308L31.7173 48.0271L31.6204 47.9301L30.942 48.415L23.4796 54.5255L22.9951 54.7922L22.3167 54.9134L21.8321 54.4285L22.0259 54.2345V53.6525L22.8012 52.8766L23.5765 51.7127L30.0698 45.2143H30.2636L31.1358 44.3414L31.0389 44.2444L30.5543 44.5354L28.0346 46.6692L27.3077 47.2027L27.2108 47.4936L24.4488 49.8699L23.6735 50.4518L23.2858 50.8398H22.8981L22.6074 51.1308L22.5105 51.4218L22.3167 51.8097L22.2198 52.1007L21.8321 52.4887L21.711 52.9736L21.1779 53.9435L20.3784 55.8833L18.852 61.1208L18.4401 63.4486L18.2463 64.2245L18.0767 65.1944L17.9313 70.238L18.0525 70.6259L18.8278 72.1778L18.9247 72.4687L19.3123 72.8567L19.4335 73.3417L19.5789 73.7296L20.4026 76.6393L20.4753 77.1243L20.5722 77.2213ZM28.2284 45.4083V45.2143H28.0346V45.4083H28.2284ZM28.0346 45.6023V45.4083H27.8407V45.6023H28.0346ZM27.8407 45.7963V45.6023H27.6469V45.7963H27.8407ZM27.6469 45.9903V45.7963H27.4531V45.9903H27.6469ZM27.4531 46.1843V45.9903H27.2593V46.1843H27.4531ZM27.2593 46.3782V46.1843H27.0654V46.3782H27.2593ZM59.3377 43.0806L59.6284 42.7896L59.7253 42.4986L60.6702 40.5588L60.8883 39.7829L60.9852 39.1039L61.179 38.91L61.0821 38.813L59.8222 39.1282L58.8531 39.4919L57.4963 39.8799L56.5756 40.0011L56.5272 40.4618L59.1438 43.0806H59.3377ZM24.158 52.9736V52.7796H23.9642V52.9736H24.158ZM23.9642 53.1676V52.9736H23.7704V53.1676H23.9642ZM32.2988 47.5421V47.3481H32.1049V47.5421H32.2988ZM32.1049 47.7361V47.5421H31.9111V47.7361H32.1049ZM31.9111 47.9301V47.7361H31.7173V47.9301H31.9111ZM37.3383 49.094V48.9H37.1444V49.094H37.3383ZM39.0827 55.6893V55.4954H38.8889V55.6893H39.0827ZM38.8889 55.8833V55.6893H38.6951V55.8833H38.8889ZM38.6951 56.0773V55.8833H38.5012V56.0773H38.6951ZM22.8012 59.763V59.569H22.6074V59.763H22.8012ZM22.6074 59.9569V59.763H22.4136V59.9569H22.6074ZM22.4136 60.1509V59.9569H22.2198V60.1509H22.4136ZM22.2198 68.8801V68.6861H22.0259V68.8801H22.2198ZM23.092 84.7866L23.3827 84.4956L23.4796 84.2046L23.9642 83.3317L24.1096 82.8468L23.9642 81.9738L24.3519 81.5859L24.5457 81.1979L29.5852 74.4086L40.2457 61.7998L40.4395 61.6058L40.3426 61.5088L39.7611 61.8968L27.1623 71.7898L25.5148 73.4387L25.4664 73.6811L25.1756 73.7781L25.0787 74.0691L24.8364 74.1176L24.5457 74.4086V74.6025L23.8673 75.2815H23.6735L22.4136 76.5424L21.2506 78.0942L20.6691 78.6762L20.9599 80.131L21.5656 82.0708L22.7043 84.3016L23.092 84.7866ZM32.1049 89.7088L33.0741 89.5391L33.8494 89.3209L35.5938 88.5692L35.8846 88.4722L36.1753 88.1812L36.2722 87.5023L36.6599 85.9505L36.7083 85.223L36.2238 85.126L36.2965 84.5926L37.5321 82.9437L37.2414 82.6528L36.2238 82.6285L36.1753 82.3618L36.4661 82.0708L37.3383 82.2163L38.0167 82.4588L41.4086 79.0641L43.0562 77.0273L43.5407 76.3484L44.8975 74.9905L44.8006 74.8935L44.5099 74.9905L41.4086 76.9303L30.942 85.0775L30.5543 85.2473L29.8759 85.3685L29.5852 85.0775L29.6821 84.7866L29.8759 84.3986L30.2636 83.8167L40.6818 71.4503L40.9725 71.3534L41.5056 70.6259L42.4747 69.462L42.9593 68.7831L43.5407 68.2012L43.4438 68.1042L43.1531 68.2012L42.184 68.7831L40.2457 70.141L31.1358 77.7062L30.4574 78.1912L30.1667 78.4822L30.1182 78.7246L29.1975 79.4521L27.55 80.9069L25.5148 82.5558L24.9818 82.8952L24.7395 83.3317L24.3519 83.9137L23.6735 85.1745L23.8673 85.7565L24.158 86.2414L25.9994 88.0843L26.2901 88.1812L27.2593 88.7632L28.0346 89.1269L29.3914 89.5391L29.8759 89.6361L30.0698 89.8301L30.2636 89.6361L30.4574 89.8301L32.1049 89.7088ZM41.021 61.1208V60.9268H40.8272V61.1208H41.021ZM40.8272 61.3148V61.1208H40.6333V61.3148H40.8272ZM40.6333 61.5088V61.3148H40.4395V61.5088H40.6333ZM43.7346 68.1042V67.9102H43.5407V68.1042H43.7346ZM24.4488 73.5356L24.7395 73.2447V73.0507L24.6426 72.9537L24.3519 73.3417L24.4488 73.5356ZM24.3519 73.7296V73.5356H24.158V73.7296H24.3519ZM24.158 73.9236V73.7296H23.9642V73.9236H24.158ZM23.9642 74.1176V73.9236H23.7704V74.1176H23.9642ZM26.0963 80.713V80.519H25.9025V80.713H26.0963ZM25.9025 80.9069V80.713H25.7086V80.9069H25.9025ZM25.7086 81.1009V80.9069H25.5148V81.1009H25.7086ZM25.5148 81.4889V81.2949H25.321V81.4889H25.5148ZM25.321 81.6829V81.4889H25.1272V81.6829H25.321ZM39.5673 86.3384L41.3117 84.9806L41.6025 84.6896V84.4956L41.8932 84.2046L42.1355 84.1561L44.2191 81.6829L44.7037 81.0039L44.8975 80.8099L44.8006 80.713L44.5099 80.7857L43.9284 81.0039L43.4438 81.1009L43.0562 81.4889H42.6685L42.2809 81.8768L41.9901 81.9738L38.3074 84.3016L38.0167 84.3986L37.7259 84.6896L37.629 84.9806L37.4594 85.3685L37.0475 86.9204L36.9748 87.8418L37.4352 87.6963L38.9858 86.7264L39.5673 86.3384ZM31.3296 84.0106V83.8167H31.1358V84.0106H31.3296ZM45.0914 74.8935V74.6995H44.8975V74.8935H45.0914ZM45.6728 81.1009V80.9069H45.479V81.1009H45.6728ZM45.479 81.4889V81.2949H45.2852V81.4889H45.479ZM87.7333 72.1778V71.9838H87.5395V72.1778H87.7333ZM87.5395 72.5657V72.3718H87.3457V72.5657H87.5395ZM31.1358 84.2046V84.0106H30.942V84.2046H31.1358ZM30.942 84.3986V84.2046H30.7481V84.3986H30.942ZM36.9506 88.0843V87.8903H36.7568V88.0843H36.9506Z" fill="grey"/>
</svg>
