<svg width="180" height="79" viewBox="0 0 180 79" fill="none" xmlns="http://www.w3.org/2000/svg">
<path fill-rule="evenodd" clip-rule="evenodd" d="M177.16 29.9348L177.239 30.3263L174.262 33.3024L172.539 34.3989L171.991 34.4772V34.0073L172.853 33.459L175.516 31.4228L175.985 30.9529V30.6396L176.769 29.8564L177.16 29.9348Z" fill="black" stroke="black"/>
<path fill-rule="evenodd" clip-rule="evenodd" d="M174.538 20.7717L174.732 21.8682L173.009 23.5912L172.383 23.9044L171.13 24.8442L170.112 25.3925L170.033 25.0009L171.756 23.2779L173.009 22.6513L174.106 21.5549V21.2416L173.009 20.1452L171.678 19.4403V18.9704L172.383 18.8921L173.009 19.5186L174.341 20.2235L174.538 20.7717Z" fill="black" stroke="black"/>
<path fill-rule="evenodd" clip-rule="evenodd" d="M172.853 43.797L172.383 43.8362L168.78 42.5831L167.292 42.3481V41.7999L169.094 41.9957L172.07 43.0138L172.853 43.797Z" fill="black" stroke="black"/>
<path fill-rule="evenodd" clip-rule="evenodd" d="M166.196 57.5026L166.274 58.2075L166.117 58.3641L165.648 57.8942L165.726 57.5026H166.196Z" fill="black" stroke="black"/>
<path fill-rule="evenodd" clip-rule="evenodd" d="M169.015 52.4903L169.094 53.1952L168.937 53.3518L168.624 53.0385L168.154 52.8819L166.587 52.2554L162.593 51.0806V50.6107L163.768 50.689L166.901 51.6288L169.015 52.4903Z" fill="black" stroke="black"/>
<path fill-rule="evenodd" clip-rule="evenodd" d="M157.111 12.0783L157.033 12.6266L156.249 14.0363L153.117 18.1088L152.333 18.892H151.707L151.55 18.7353L152.49 17.7955L153.117 16.8557L155.623 13.723L156.093 12.9398L156.249 12.4699L156.719 12L157.111 12.0783Z" fill="black" stroke="black"/>
<path fill-rule="evenodd" clip-rule="evenodd" d="M162.828 39.0979L162.358 39.5678L160.635 39.1762L157.502 39.137L156.249 39.4112L154.683 40.0377L152.647 41.1341L150.924 42.8571L149.984 44.4235L149.357 45.05L149.201 45.8332L148.026 49.8274H147.518L148.104 41.5257H148.731V44.1102L148.887 44.2668L149.357 43.7969L150.297 42.2306L151.394 41.1341L152.177 40.6642L153.273 39.8811L154.056 39.4112L154.683 39.137L156.876 38.5105L159.069 38.1189L160.322 38.1581L162.671 38.9412L162.828 39.0979Z" fill="black" stroke="black"/>
<path fill-rule="evenodd" clip-rule="evenodd" d="M131.736 12.3916L131.698 12.9398L130.132 17.3256L129.935 18.7353L129.465 19.2052L128.995 18.7353L129.151 17.6388L130.874 12.7832L131.344 12.3133L131.736 12.3916Z" fill="black" stroke="black"/>
<path fill-rule="evenodd" clip-rule="evenodd" d="M143.64 49.3575L143.719 49.7491L142.622 50.8455L142.152 51.0022L140.586 51.8636L137.297 51.7853L136.513 51.0022L136.122 49.5924V47.0863L136.513 45.6766L136.827 45.3633L136.513 45.05L136.592 44.3452L136.983 44.2668L137.297 44.5801L138.08 43.7969V43.4837L138.863 42.7005L140.116 42.0739L140.742 41.4474H142.309L143.092 42.2306L142.898 43.327L142.779 43.7969L141.369 45.2067L139.959 45.6374L138.08 45.5982L137.61 45.5199L137.14 45.9898V50.3756L137.923 51.1588L138.393 51.2763L139.646 51.3154L141.212 50.6889L142.935 49.5924L143.64 49.3575ZM142.465 42.8571L142.152 42.5439L142.074 42.1523L141.212 42.2697L140.586 42.5439L140.116 42.7005L138.08 44.7367L138.236 44.8934L138.706 45.05L139.333 45.0892L140.429 44.8934L141.056 44.2668H141.369L142.465 42.8571Z" fill="black" stroke="black"/>
<path fill-rule="evenodd" clip-rule="evenodd" d="M131.814 30.6396L131.501 52.3336H130.953L130.837 51.7854L131.188 30.9529L131.658 30.483L131.814 30.6396Z" fill="black" stroke="black"/>
<path fill-rule="evenodd" clip-rule="evenodd" d="M126.41 52.4903L126.489 52.8819L126.019 53.3518L125.549 53.4692H124.296L123.748 53.2734L123.669 52.8819L123.199 52.412L122.573 53.0385L122.103 53.156L121.006 53.3518L120.537 52.8819L120.458 52.412L120.421 50.2191L121.047 47.7129L121.282 47.0864L121.476 46.3032L121.946 45.8333L122.416 46.3032L122.103 46.6164L121.946 47.3996L121.36 49.2792L120.928 51.1589L121.006 51.7854L121.241 52.3336L121.946 52.412L123.043 51.3155L122.729 51.0022L123.005 47.3996L123.199 46.7731L123.513 46.1465L123.669 45.6766L124.139 45.2067H124.452L124.922 45.6766L124.687 48.6527L124.139 50.8456L124.18 52.0987L124.374 52.6469L126.41 52.4903ZM123.982 47.5563L123.669 47.3996V48.8093L123.982 48.966V47.5563Z" fill="black" stroke="black"/>
<path fill-rule="evenodd" clip-rule="evenodd" d="M110.747 14.5844L110.669 15.4459L110.355 16.3857L110.199 17.1689L109.572 17.7954L109.415 18.2654L108.789 19.8317L108.554 21.0065H107.771L107.812 20.4582L108.162 19.2052L108.516 18.2654L109.378 16.699L109.729 15.7592L109.885 14.976L110.355 14.5061L110.747 14.5844Z" fill="black" stroke="black"/>
<path fill-rule="evenodd" clip-rule="evenodd" d="M119.518 51.5503L119.597 51.9419L118.814 52.7251L118.344 52.8817L116.151 53.8215H114.898L113.958 53.4691L113.488 53.3516L112.705 52.5685V52.2552L112.078 51.6286V50.6888L111.765 50.3756L112.078 50.0623L112.276 48.3393L112.589 47.3995L113.175 46.1464L113.331 45.6765L114.741 44.2668L115.211 44.1102L116.464 43.5228H117.717L118.187 43.6402L118.657 44.1102L118.97 45.3632L117.874 46.4597L116.151 46.9687H115.524L114.271 46.5772L113.723 46.538L112.783 49.9057L112.824 50.5322L113.215 51.472L113.331 51.9419L114.115 52.7251L114.898 52.8817H116.151L118.187 52.0985L118.814 51.472L119.518 51.5503ZM118.03 44.7367L117.56 44.2668L116.464 44.4626L115.837 44.7367L115.368 44.8933L114.584 45.6765L114.741 45.8331L115.211 45.9115L116.777 45.9506L117.56 45.8331L118.03 45.3632V44.7367Z" fill="black" stroke="black"/>
<path fill-rule="evenodd" clip-rule="evenodd" d="M108.632 47.5561L108.554 47.9869L107.066 48.0652L106.753 53.195L105.969 53.9781L105.578 53.8998V53.3516L105.932 51.7853L106.126 48.1043L102.837 47.3995L102.367 46.9296V46.303L102.524 46.1464L102.837 46.4597L103.933 46.6163L104.873 46.9296L105.735 47.0079L105.697 46.1464L104.992 43.327L104.716 42.7004L104.638 42.1522H105.421L106.831 47.047L108.162 47.0862L108.632 47.5561Z" fill="black" stroke="black"/>
<path fill-rule="evenodd" clip-rule="evenodd" d="M86.6658 17.7172L86.3901 21.5548L85.9202 22.0247L85.5286 21.9463L85.7635 18.1088L86.2335 17.6389L86.6658 17.7172Z" fill="black" stroke="black"/>
<path fill-rule="evenodd" clip-rule="evenodd" d="M96.9629 32.3628V32.9501L95.4749 33.1459L92.9687 33.7725L91.4024 34.399L88.9745 36.2003L87.7998 38.0016L87.5272 38.6282V39.8812L87.6431 40.3512L88.7396 41.4476L89.3661 41.7609L91.0891 42.8573L97.9811 45.6767L99.5474 46.6166L100.017 46.7732L101.427 48.1829L101.584 48.9661V50.2192L101.233 51.159L101.114 51.6289L99.0775 53.6651L97.3545 54.7616L96.728 55.0357L95.4749 55.3881L94.0652 55.5448L93.7519 55.858L93.4386 55.5448L91.4024 55.349L89.6794 54.9182L88.8962 54.135L89.2878 52.8036H90.3843L90.4626 53.1952L89.836 53.8218L89.9927 53.9784L91.4024 54.37H95.1616L96.4147 54.0959L97.0412 53.8218L98.7642 52.7253L100.174 51.3156L100.331 50.8457L100.606 50.2192V48.9661L100.487 48.4962L99.704 47.713L99.2341 47.5564L96.4147 46.0292L90.7758 43.7971L89.2095 42.8573L88.7396 42.7007L86.7033 40.6644L86.625 40.1945L86.5874 38.6282L86.9007 37.6884L87.9564 35.9654L88.7396 35.1822L90.7758 33.7725L93.282 32.8327L94.2218 32.5977L96.9629 32.3628Z" fill="black" stroke="black"/>
<path fill-rule="evenodd" clip-rule="evenodd" d="M65.9116 26.7238L66.0275 27.1937L65.5576 27.6636L65.0877 27.1937L64.7744 25.9406L65.2443 25.4707L65.7142 25.9406L65.9116 26.7238Z" fill="black" stroke="black"/>
<path fill-rule="evenodd" clip-rule="evenodd" d="M65.2443 51.472L65.401 53.5082L64.9311 53.9781L64.4612 53.5082L64.1479 46.2247H64.7369L65.2443 51.472Z" fill="black" stroke="black"/>
<path fill-rule="evenodd" clip-rule="evenodd" d="M64.3828 40.5859L64.4612 40.9775L63.9913 41.4474L63.8346 41.2908L63.9129 40.5859H64.3828Z" fill="black" stroke="black"/>
<path fill-rule="evenodd" clip-rule="evenodd" d="M48.641 28.2901L48.7601 29.7781L48.3277 29.8564L47.8578 29.3865L47.7012 28.2901L47.3879 27.037L46.918 23.1211L46.6048 22.8079L47.0747 22.338L47.4663 22.4163L48.3277 27.037L48.641 28.2901Z" fill="black" stroke="black"/>
<path fill-rule="evenodd" clip-rule="evenodd" d="M60.8586 48.3394L60.7019 53.1951L60.232 53.665L59.7621 53.1951L60.0754 52.8818L59.7621 52.5685L60.0754 52.2552L59.8404 48.0261L59.4488 45.9898L58.6657 45.2067L58.3524 45.5199H57.4126L56.3161 46.6164L56.1595 47.0863L55.2197 49.2792L54.9847 50.219L54.7498 53.8216L54.2799 54.2915L53.8883 54.2132L53.4967 53.1951L53.81 52.8818L53.4967 52.5685L53.81 52.2552L53.6158 50.219L53.3401 48.9659L52.5569 46.9297L52.2436 46.6164L52.7135 46.1465L53.4967 46.9297L53.6533 47.3996L53.929 48.0261L54.1232 49.1225V49.2792L54.4365 49.1225L54.5932 48.3394L54.9472 47.3996L55.6896 45.9898L56.786 44.8934L57.256 44.7759L58.3524 44.5801L58.6657 44.2669L58.9789 44.5801H59.2922L60.0754 45.3633L60.8586 48.3394Z" fill="black" stroke="black"/>
<path fill-rule="evenodd" clip-rule="evenodd" d="M51.8144 55.8578L51.9304 56.3277L51.4605 56.7976L50.9905 56.3277L50.9122 55.8578L50.2074 52.7251L50.0507 50.6888L50.5206 50.2189L50.9122 50.2972L50.9905 51.0021L50.6773 51.3154L50.9905 51.6286L51.1472 53.0384L51.5012 54.918L51.8144 55.8578Z" fill="black" stroke="black"/>
<path fill-rule="evenodd" clip-rule="evenodd" d="M50.364 44.4235L50.2857 45.4417H49.8158L49.7375 45.0501L49.1109 44.4235L49.1892 43.7187L49.5808 43.6403L50.364 44.4235Z" fill="black" stroke="black"/>
<path fill-rule="evenodd" clip-rule="evenodd" d="M31.5678 18.7354L31.7652 21.0849L32.0377 22.338L32.6642 24.2176L32.7426 25.3924L32.351 25.4707L31.8811 25.0008L31.7652 24.5309L31.0979 22.6513L30.8253 21.3982L30.628 19.0487L30.3147 18.7354L30.7846 18.2655H31.0979L31.5678 18.7354Z" fill="black" stroke="black"/>
<path fill-rule="evenodd" clip-rule="evenodd" d="M41.1225 40.821L41.4358 42.3873L43.0022 49.2793L43.942 52.412L44.8442 54.6049L45.0384 55.3881L45.665 56.0146L45.9782 56.9544L46.1349 57.1111L47.0747 56.1712L47.5446 56.6411L47.153 57.9725L46.7614 58.0509L46.4481 58.3641L46.1349 58.0509H45.8216L45.0384 57.2677L44.8818 56.7978L43.0022 52.7253L39.8695 39.5679L39.7128 37.6883L39.3995 37.8449L35.1704 54.2916L35.0138 56.0146L34.5439 56.4845L34.2306 56.1712H33.9173L32.5076 54.7615L32.351 54.2916L28.2784 47.3997L27.0661 44.5802L26.8687 43.7971L26.2422 43.1705L26.048 42.3873L24.1683 38.0016L23.736 37.2184L23.1095 36.2786L22.7962 35.652L23.2661 35.1821H23.5794L24.0493 35.652L25.7347 38.9414L26.3612 40.5077L26.5555 41.2909L27.182 41.9174L27.301 42.3873L28.905 46.1466L31.5678 51.0023L33.1341 53.5084L33.4474 54.135L33.9173 54.6049L34.0739 54.4483L38.6164 36.7485L38.773 35.3388L39.2429 34.8689L39.6345 34.9472L41.1225 40.821Z" fill="black" stroke="black"/>
<path fill-rule="evenodd" clip-rule="evenodd" d="M22.9529 39.881L23.5011 43.0137L23.1095 56.0928L23.5794 56.1711L24.0493 56.641V58.2073L23.5794 58.6772L22.7962 57.8941V57.5808L22.3263 57.1109L21.8564 57.0326L22.4829 47.2429L22.7962 46.9296L22.4829 46.6163L22.7962 46.3031L22.3263 42.0739L21.6622 39.2545L20.8007 37.0616L20.6033 35.9651L20.76 35.8085L21.0732 36.1218L21.4648 36.2001L21.6998 36.7483L22.602 38.6279L22.9529 39.881Z" fill="black" stroke="black"/>
<path fill-rule="evenodd" clip-rule="evenodd" d="M157.816 57.8941L157.346 58.364L156.563 58.2074L154.996 57.6592L149.044 57.5025L148.418 57.3459L146.538 57.3067L141.212 59.0689H138.706L137.61 58.6773L136.983 58.0508L132.754 57.9724L131.501 58.2074L129.621 58.8339L128.368 59.1081L125.549 59.0689L124.139 58.6773L123.513 58.0508L122.103 57.3459L120.223 57.3067L119.283 57.62L115.524 59.4213L114.271 59.6954H108.946L108.006 59.4605L106.753 59.4996L106.126 59.7346L102.367 60.6744H98.9209L97.3546 60.4395L93.9086 60.4786L92.6555 60.7136L88.583 61.9666L86.7034 62.2799H85.4503L82.3176 61.4184L79.8114 61.3793L71.6664 62.7107L70.7266 63.2197L69.7868 63.8463L67.9071 64.7469L66.9673 65.0602L65.0877 65.4126L61.7984 65.256L59.4488 62.9065V62.5932L58.9789 62.1233L58.6657 62.4365L57.5692 62.6323L56.3161 63.1806L55.3763 63.4938L53.1834 63.8854L51.9304 63.8463L50.6773 63.4938L50.0507 63.2589L48.876 63.1414L48.7977 63.533L48.0145 64.3162L45.9782 65.7259L45.3517 65.9608H43.7853L43.3154 65.8825L41.5924 64.1595L41.2009 63.1414L40.8093 63.0631L40.1827 62.4365H39.5562L38.6164 63.3764L38.1465 63.533L36.5801 64.4728L35.9536 64.7469L34.8571 64.9427L34.5439 65.256L34.2306 64.9427L33.1341 64.1595L31.5678 63.8463L29.0616 65.4126L27.8085 66H26.5555L25.9289 65.7259L25.459 65.5693L24.9891 65.0993L23.8927 63.3764L23.2661 62.1233L23.0312 61.5751L22.5613 61.4184L22.4046 60.9485L21.6998 60.8702L19.6635 62.9065L19.5852 63.298L19.1936 63.3764L18.7237 62.9065L19.037 62.5932L19.6635 61.3401L20.76 60.2437L22.6396 59.9304L24.3626 61.6534L24.5192 62.1233L25.1457 63.3764L25.3024 63.8463L26.0856 64.6294L26.5555 64.7078H28.1218L29.6882 63.8463L31.4112 62.7498L32.0377 62.1233L33.0558 62.2016L33.1341 62.5932L34.5439 64.0029L35.6403 63.8071L36.2668 63.533L37.9898 62.4365L38.6164 62.1233L39.2429 61.4967H39.8695L40.1827 61.1835L40.496 61.4967H40.8093L42.219 62.9065V63.2197L44.2552 65.256L44.5685 64.9427H45.5083L46.1349 64.3162H46.4481L48.641 62.1233L50.0507 62.3191L51.9304 62.8673L53.4967 62.9065L55.3763 62.5149L58.509 61.3401L59.4488 61.3793L59.9971 61.5751L60.3887 62.5932L62.1116 64.3162L63.2081 64.4728H64.7744L66.6541 64.1204L67.5939 63.8071L68.847 63.2197L70.2567 62.4365L71.1965 61.4967L75.4256 61.2618L79.1849 60.4786H82.6309L85.137 60.9877H88.2697L89.5228 60.7136L92.3422 59.8129L93.9086 59.4996H97.3546L98.9209 59.7346L102.68 59.6954L106.753 58.5207H108.006L108.946 58.7556L115.054 58.6773L115.681 58.0508L116.151 57.9333L117.717 57.2676L118.97 56.6802L120.223 56.3278L122.103 56.3669L122.886 56.4844L123.513 57.111L124.922 57.855L125.862 58.1291H128.368L133.381 56.9543L135.887 57.0326L137.61 57.4242L138.236 58.0508L138.706 58.1291H141.212L144.032 57.2676L145.598 56.6802L146.851 56.3278L148.418 56.4061L149.671 56.9152L150.924 56.9543L152.177 56.641H153.743L155.623 57.0326L157.189 57.62L157.659 57.7375L157.816 57.8941Z" fill="black" stroke="black"/>
<path fill-rule="evenodd" clip-rule="evenodd" d="M14.9645 37.5317L14.4946 38.0016L13.7114 37.8058L12.3017 37.0618L11.8318 36.5919L11.5185 35.9653L10.8919 35.0255L10.5787 34.399L10.2654 34.0857L10.7353 33.6158H11.0486L11.5185 34.0857L12.8499 36.0436L14.1813 36.7485L14.9645 37.5317Z" fill="black" stroke="black"/>
<path fill-rule="evenodd" clip-rule="evenodd" d="M10.5004 49.6315V50.493L8.38579 50.3364L5.56635 49.3966L4.93981 49.1225L4.46991 48.9658L4 48.4959L4.46991 48.026L5.25308 48.2218L7.44597 49.0833L8.69906 49.4358L10.5004 49.6315Z" fill="black" stroke="black"/>
</svg>
